# Noesis .obj export.
#
mtllib treeTripDownHorz_prefab.mtl
g
v  -5.481691 -0.132928 -9.146728
v  -2.736084 1.389174 2.751404
v  -1.575317 2.477665 3.667969
v  -0.319944 -0.562108 11.676941
v  -2.993043 4.018350 -4.121704
v  -6.879763 8.794318 -13.255614
v  -0.992799 3.983972 -4.306396
v  -1.575317 2.477665 3.667969
v  -0.078979 1.524686 3.667969
v  -0.319944 -0.562108 11.676941
v  -2.993043 4.018350 -4.121704
v  -4.171267 10.300480 -15.548095
v  1.359009 0.046650 3.547607
v  -0.079714 0.030527 -12.751038
v  -0.319944 -0.562108 11.676941
v  -6.879763 8.794318 -13.255614
v  -4.605472 11.610088 -18.332336
v  8.933712 -0.785132 -21.268068
v  -13.675174 10.582638 -18.826353
v  0.277460 10.772075 -38.299255
v  23.950560 -32.913898 -17.156925
v  7.591791 -1.631660 -40.539978
v  21.629021 -30.715359 -42.713505
v  -12.504763 -2.231487 -12.657957
v  -5.481691 -0.132928 -9.146728
v  -6.879763 8.794318 -13.255614
v  -13.675174 10.582638 -18.826353
v  -13.675174 10.582638 -18.826353
v  -16.250248 0.170446 -27.825071
v  -12.504763 -2.231487 -12.657957
v  -25.041142 -30.475727 -19.941280
v  -13.618659 7.925125 -41.975033
v  -9.658820 -2.544064 -43.912292
v  -9.239995 74.265305 -33.015503
v  -13.275643 68.760834 -52.169552
v  -11.055916 -30.805965 -50.757996
v  -0.170293 75.292755 -32.521545
v  -9.239995 74.265305 -33.015503
v  -13.675174 10.582638 -18.826353
v  -4.605472 11.610088 -18.332336
v  4.712638 74.454742 -52.488342
v  -0.170293 75.292755 -32.521545
v  -4.605472 11.610088 -18.332336
v  0.277460 10.772075 -38.299255
v  -0.170296 154.773560 -51.764099
v  -9.239999 153.746094 -52.258118
v  4.712635 153.935547 -71.730957
v  -0.170296 154.773560 -51.764099
v  -9.239999 153.746094 -52.258118
v  -13.275646 148.241638 -71.412170
v  -13.618659 7.925125 -41.975033
v  -13.275643 68.760834 -52.169552
v  4.712638 74.454742 -52.488342
v  0.277460 10.772075 -38.299255
v  -9.658820 -2.544064 -43.912292
v  7.591791 -1.631660 -40.539978
v  -11.055916 -30.805965 -50.757996
v  21.629021 -30.715359 -42.713505
v  4.712635 153.935547 -71.730957
v  -13.275646 148.241638 -71.412170

vt  0.701540 -0.410257 0.000000
vt  0.578146 -0.481116 0.000000
vt  0.573699 -0.415843 0.000000
vt  0.530596 -0.452853 0.000000
vt  0.618079 -0.403131 0.000000
vt  0.645149 -0.351992 0.000000
vt  0.617660 -0.435605 0.000000
vt  0.575997 -0.413732 0.000000
vt  0.577148 -0.437796 0.000000
vt  0.534999 -0.431401 0.000000
vt  0.617740 -0.405275 0.000000
vt  0.661271 -0.374371 0.000000
vt  0.578146 -0.481116 0.000000
vt  0.679890 -0.472010 0.000000
vt  0.524014 -0.488609 0.000000
vt  0.643907 -0.353979 0.000000
vt  0.738354 -0.325999 0.000000
vt  0.744194 -0.466806 0.000000
vt  0.670109 -0.308195 0.000000
vt  0.863816 -0.325999 0.000000
vt  0.749872 -0.691224 0.000000
vt  0.863816 -0.465369 0.000000
vt  0.863816 -0.691224 0.000000
vt  0.738354 -0.325999 0.000000
vt  0.701540 -0.410257 0.000000
vt  0.645149 -0.351992 0.000000
vt  0.670052 -0.307788 0.000000
vt  0.738354 -0.325999 0.000000
vt  0.745736 -0.466311 0.000000
vt  0.680387 -0.470008 0.000000
vt  0.748803 -0.692660 0.000000
vt  0.863816 -0.325999 0.000000
vt  0.863816 -0.466381 0.000000
vt  0.738354 -0.012071 0.000000
vt  0.863816 -0.012071 0.000000
vt  0.863816 -0.693566 0.000000
vt  0.738354 -0.013712 0.000000
vt  0.670109 -0.013712 0.000000
vt  0.670109 -0.308195 0.000000
vt  0.738354 -0.325999 0.000000
vt  0.863816 -0.013712 0.000000
vt  0.738354 -0.013712 0.000000
vt  0.738354 -0.325999 0.000000
vt  0.863816 -0.325999 0.000000
vt  0.738354 -0.193135 0.000000
vt  0.670109 -0.193135 0.000000
vt  0.863816 -0.193135 0.000000
vt  0.738354 -0.193135 0.000000
vt  0.738354 -0.191793 0.000000
vt  0.863816 -0.193607 0.000000
vt  0.985975 -0.325999 0.000000
vt  0.985975 -0.013712 0.000000
vt  0.863816 -0.013712 0.000000
vt  0.863816 -0.325999 0.000000
vt  0.985975 -0.436902 0.000000
vt  0.863816 -0.465369 0.000000
vt  0.985975 -0.691224 0.000000
vt  0.863816 -0.691224 0.000000
vt  0.863816 -0.193135 0.000000
vt  0.985975 -0.193135 0.000000

vn  -0.776543 0.220577 0.590193
vn  -0.737932 0.656997 0.154307
vn  -0.184978 0.932119 0.311348
vn  0.294618 0.899659 0.322202
vn  -0.566135 0.718444 0.404141
vn  -0.365014 0.680261 0.635617
vn  0.621365 0.770624 0.141575
vn  -0.184978 0.932119 0.311348
vn  0.628027 0.755286 0.187415
vn  0.294618 0.899659 0.322202
vn  -0.566135 0.718444 0.404141
vn  0.504473 0.808801 0.302238
vn  0.756433 0.641210 0.129068
vn  0.819548 0.458244 0.344025
vn  0.294618 0.899659 0.322202
vn  -0.365014 0.680261 0.635617
vn  0.517903 0.605587 0.604186
vn  0.801975 0.521329 0.291638
vn  -0.792838 0.309782 0.524826
vn  0.785952 0.238591 -0.570398
vn  0.894827 0.440257 0.073887
vn  0.652794 0.423191 -0.628307
vn  0.756391 0.403545 -0.514805
vn  -0.817096 0.264822 0.512078
vn  -0.776543 0.220577 0.590193
vn  -0.365014 0.680261 0.635617
vn  -0.792838 0.309782 0.524826
vn  -0.792838 0.309782 0.524826
vn  -0.984511 0.163593 -0.063054
vn  -0.817096 0.264822 0.512078
vn  -0.951491 0.211039 -0.223893
vn  -0.666437 -0.011470 -0.745473
vn  -0.417642 0.164539 -0.893589
vn  -0.661945 0.174682 0.728914
vn  -0.768494 -0.120825 -0.628346
vn  -0.412674 0.219302 -0.884085
vn  0.594008 0.160017 0.788384
vn  -0.661945 0.174682 0.728914
vn  -0.792838 0.309782 0.524826
vn  0.517903 0.605587 0.604186
vn  0.813781 -0.143153 -0.563266
vn  0.594008 0.160017 0.788384
vn  0.517903 0.605587 0.604186
vn  0.785952 0.238591 -0.570398
vn  0.643127 0.180188 0.744258
vn  -0.638526 0.181092 0.747991
vn  0.834354 -0.129707 -0.535751
vn  0.643127 0.180188 0.744258
vn  -0.638526 0.181092 0.747991
vn  -0.689063 -0.170527 -0.704353
vn  -0.666437 -0.011470 -0.745473
vn  -0.768494 -0.120825 -0.628346
vn  0.813781 -0.143153 -0.563266
vn  0.785952 0.238591 -0.570398
vn  -0.417642 0.164539 -0.893589
vn  0.652794 0.423191 -0.628307
vn  -0.412674 0.219302 -0.884085
vn  0.756391 0.403545 -0.514805
vn  0.834354 -0.129707 -0.535751
vn  -0.689063 -0.170527 -0.704353

g Object106-Pivot
usemtl Temple Run Trees Material
f  1/1/1 2/2/2 3/3/3
f  2/2/2 4/4/4 3/3/3
f  5/5/5 1/1/1 3/3/3
f  6/6/6 1/1/1 5/5/5
f  7/7/7 8/8/8 9/9/9
f  8/8/8 10/10/10 9/9/9
f  11/11/11 8/8/8 7/7/7
f  12/12/12 11/11/11 7/7/7
f  9/9/9 13/13/13 7/7/7
f  12/12/12 7/7/7 14/14/14
f  14/14/14 7/7/7 13/13/13
f  13/13/13 9/9/9 15/15/15
f  16/16/16 11/11/11 12/12/12
f  14/14/14 17/17/17 12/12/12
f  12/12/12 17/17/17 16/16/16
f  18/18/18 17/17/17 14/14/14
f  17/17/17 19/19/19 16/16/16
f  20/20/20 17/17/17 18/18/18
f  14/14/14 21/21/21 18/18/18
f  22/22/22 20/20/20 18/18/18
f  18/18/18 21/21/21 22/22/22
f  21/21/21 23/23/23 22/22/22
f  24/24/24 25/25/25 26/26/26
f  27/27/27 24/24/24 26/26/26
f  28/28/28 29/29/29 30/30/30
f  29/29/29 31/31/31 30/30/30
f  32/32/32 29/29/29 28/28/28
f  33/33/33 29/29/29 32/32/32
f  33/33/33 31/31/31 29/29/29
f  28/28/28 34/34/34 32/32/32
f  34/34/34 35/35/35 32/32/32
f  36/36/36 31/31/31 33/33/33
f  37/37/37 38/38/38 39/39/39
f  40/40/40 37/37/37 39/39/39
f  41/41/41 42/42/42 43/43/43
f  44/44/44 41/41/41 43/43/43
f  37/37/37 45/45/45 38/38/38
f  45/45/45 46/46/46 38/38/38
f  41/41/41 47/47/47 42/42/42
f  47/47/47 48/48/48 42/42/42
f  34/34/34 49/49/49 35/35/35
f  49/49/49 50/50/50 35/35/35
f  51/51/51 52/52/52 53/53/53
f  54/54/54 51/51/51 53/53/53
f  55/55/55 51/51/51 54/54/54
f  56/56/56 55/55/55 54/54/54
f  57/57/57 55/55/55 56/56/56
f  58/58/58 57/57/57 56/56/56
f  53/53/53 52/52/52 59/59/59
f  52/52/52 60/60/60 59/59/59

g
